#N canvas 118 94 1218 487 10;
#X declare -lib mrpeach;
#X obj -372 -160 import mrpeach;
#X obj 47 -126 unpackOSC;
#X obj 169 122 random 255;
#X obj 302 125 random 255;
#X obj 462 121 random 255;
#X floatatom 169 184 5 0 0 0 - - -;
#X floatatom 302 185 5 0 0 0 - - -;
#X floatatom 463 187 5 0 0 0 - - -;
#X obj 168 277 moses;
#X obj 194 482 moses;
#X msg 221 567 255;
#X floatatom 167 583 5 0 0 0 - - -;
#X floatatom 195 318 5 0 0 0 - - -;
#X obj 394 286 moses;
#X obj 421 484 moses;
#X msg 448 569 255;
#X floatatom 394 585 5 0 0 0 - - -;
#X floatatom 421 327 5 0 0 0 - - -;
#X obj 521 284 moses;
#X obj 550 484 moses;
#X msg 577 569 255;
#X floatatom 523 585 5 0 0 0 - - -;
#X floatatom 548 325 5 0 0 0 - - -;
#X obj 168 220 t f f f;
#X obj 305 248 t f f f;
#X obj 493 239 t f f f;
#X floatatom 220 529 5 0 0 0 - - -;
#X floatatom 451 526 5 0 0 0 - - -;
#X floatatom 580 531 5 0 0 0 - - -;
#X obj 205 392 pack b f;
#X msg 205 427 \$2;
#X obj 452 409 pack b f;
#X msg 452 444 \$2;
#X obj 558 399 pack b f;
#X msg 558 434 \$2;
#X obj 207 359 delay 3;
#X obj 452 377 delay 3;
#X obj 558 366 delay 3;
#X obj 172 54 t b b b b;
#X obj 303 -66 tgl 15 0 empty empty empty 17 7 0 10 -262144 -1 -1 0
1;
#X obj 291 -32 moses 1;
#X obj 291 -1 pipe 1000;
#X obj 171 23 metro 150;
#X obj 134 -60 print;
#X msg -200 14 255;
#X msg -68 3 0;
#X msg -42 571 255;
#X msg -80 571 0;
#X msg -118 570 0;
#X msg 13 48 255;
#X msg 43 49 255;
#X msg 72 49 200;
#X msg 633 -28 255;
#X msg 723 -30 0;
#X msg 680 -30 0;
#X obj 49 -22 routeOSC /1/push5;
#X obj 147 669 ctlout 1 27;
#X obj 241 671 ctlout 2 27;
#X obj 336 669 ctlout 3 27;
#X obj -335 -81 routeOSC /1/push4;
#X obj 367 -98 routeOSC /1/push1;
#X obj 598 -108 routeOSC /1/push2;
#X obj -174 -94 routeOSC /1/push3;
#X obj -365 35 tgl 15 0 empty empty empty 17 7 0 10 -262144 -1 -1 0
1;
#X obj -354 70 pipe 1000;
#X msg -375 105 255;
#X msg -338 106 0;
#X obj 399 -14 pipe 1000;
#X msg 378 21 255;
#X msg 415 22 0;
#X obj 385 70 ctlout 1;
#X obj -367 158 ctlout 4;
#X obj -154 61 tgl 15 0 empty empty empty 17 7 0 10 -262144 -1 -1 0
1;
#X obj -143 96 pipe 1000;
#X msg -164 131 255;
#X msg -127 132 0;
#X obj -161 192 ctlout 3;
#X obj 749 66 tgl 15 0 empty empty empty 17 7 0 10 -262144 -1 -1 0
1;
#X obj 760 101 pipe 1000;
#X msg 739 136 255;
#X msg 776 137 0;
#X obj 747 189 ctlout 2;
#X obj 49 -160 udpreceive 8089;
#X msg -140 8 50;
#X obj 112 35 tgl 15 0 empty empty empty 17 7 0 10 -262144 -1 -1 1
1;
#X obj 123 70 pipe 1000;
#X msg 102 105 255;
#X msg 139 106 0;
#X obj 110 158 ctlout 5;
#X obj -311 214 ctlout 6;
#X obj -96 189 ctlout 6;
#X connect 1 0 43 0;
#X connect 1 0 55 0;
#X connect 1 0 59 0;
#X connect 1 0 60 0;
#X connect 1 0 61 0;
#X connect 1 0 62 0;
#X connect 2 0 5 0;
#X connect 3 0 6 0;
#X connect 4 0 7 0;
#X connect 5 0 23 0;
#X connect 6 0 24 0;
#X connect 7 0 25 0;
#X connect 8 0 11 0;
#X connect 8 1 12 0;
#X connect 9 0 11 0;
#X connect 9 1 26 0;
#X connect 10 0 11 0;
#X connect 11 0 56 0;
#X connect 12 0 29 1;
#X connect 12 0 35 0;
#X connect 13 0 16 0;
#X connect 13 1 17 0;
#X connect 14 0 16 0;
#X connect 14 1 27 0;
#X connect 15 0 16 0;
#X connect 16 0 57 0;
#X connect 17 0 31 1;
#X connect 17 0 36 0;
#X connect 18 0 21 0;
#X connect 18 1 22 0;
#X connect 19 0 21 0;
#X connect 19 1 28 0;
#X connect 20 0 21 0;
#X connect 21 0 58 0;
#X connect 22 0 33 1;
#X connect 22 0 37 0;
#X connect 23 0 8 0;
#X connect 23 1 14 1;
#X connect 23 2 18 1;
#X connect 24 0 13 0;
#X connect 24 1 8 1;
#X connect 24 2 19 1;
#X connect 25 0 18 0;
#X connect 25 1 13 1;
#X connect 25 2 9 1;
#X connect 26 0 10 0;
#X connect 27 0 15 0;
#X connect 28 0 20 0;
#X connect 29 0 30 0;
#X connect 30 0 9 0;
#X connect 31 0 32 0;
#X connect 32 0 14 0;
#X connect 33 0 34 0;
#X connect 34 0 19 0;
#X connect 35 0 29 0;
#X connect 36 0 31 0;
#X connect 37 0 33 0;
#X connect 38 0 2 0;
#X connect 38 1 3 0;
#X connect 38 2 4 0;
#X connect 39 0 40 0;
#X connect 39 0 67 0;
#X connect 39 0 68 0;
#X connect 40 0 41 0;
#X connect 40 1 42 0;
#X connect 41 0 42 0;
#X connect 42 0 38 0;
#X connect 44 0 56 0;
#X connect 45 0 58 0;
#X connect 46 0 58 0;
#X connect 47 0 57 0;
#X connect 48 0 56 0;
#X connect 49 0 56 0;
#X connect 50 0 57 0;
#X connect 51 0 58 0;
#X connect 52 0 56 0;
#X connect 53 0 58 0;
#X connect 54 0 57 0;
#X connect 55 0 49 0;
#X connect 55 0 50 0;
#X connect 55 0 51 0;
#X connect 55 0 84 0;
#X connect 59 0 48 0;
#X connect 59 0 47 0;
#X connect 59 0 46 0;
#X connect 59 0 63 0;
#X connect 60 0 39 0;
#X connect 61 0 52 0;
#X connect 61 0 54 0;
#X connect 61 0 53 0;
#X connect 61 0 77 0;
#X connect 62 0 44 0;
#X connect 62 0 83 0;
#X connect 62 0 45 0;
#X connect 62 0 72 0;
#X connect 63 0 64 0;
#X connect 63 0 65 0;
#X connect 64 0 66 0;
#X connect 65 0 71 0;
#X connect 65 0 89 0;
#X connect 66 0 71 0;
#X connect 66 0 89 0;
#X connect 67 0 69 0;
#X connect 68 0 70 0;
#X connect 69 0 70 0;
#X connect 72 0 73 0;
#X connect 72 0 74 0;
#X connect 73 0 75 0;
#X connect 74 0 76 0;
#X connect 74 0 90 0;
#X connect 75 0 76 0;
#X connect 75 0 90 0;
#X connect 77 0 78 0;
#X connect 77 0 79 0;
#X connect 78 0 80 0;
#X connect 79 0 81 0;
#X connect 80 0 81 0;
#X connect 82 0 1 0;
#X connect 83 0 57 0;
#X connect 84 0 85 0;
#X connect 84 0 86 0;
#X connect 85 0 87 0;
#X connect 86 0 88 0;
#X connect 87 0 88 0;
